<svg xmlns="http://www.w3.org/2000/svg" viewBox="0 0 58.37 52.01"><defs><style>.cls-1{isolation:isolate;}.cls-2{fill:#f47f4a;}.cls-3{fill:#b27a57;}.cls-4{fill:#f3753c;}.cls-5{fill:#f7b686;}.cls-6{fill:#f9cda0;}.cls-7{fill:#e8e6de;}.cls-8{fill:#404040;}.cls-9{fill:#b7b7b7;opacity:0.65;mix-blend-mode:multiply;}</style></defs><title>Asset 3</title><g class="cls-1"><g id="Layer_2" data-name="Layer 2"><g id="Layer_1-2" data-name="Layer 1"><path class="cls-2" d="M38.72,9.9S40.78.18,45.8,0C50-.14,62.21,2.87,57.17,11.93s-7.62,6.92-7.62,6.92Z"/><path class="cls-3" d="M43,11.45s4.18-8.7,7.72-5.84-1,8.32-2.16,9.9Z"/><path class="cls-2" d="M19.65,9.9S17.59.18,12.57,0C8.39-.14-3.84,2.87,1.2,11.93s7.62,6.92,7.62,6.92Z"/><path class="cls-3" d="M15.36,11.45s-4.18-8.7-7.72-5.84,1,8.32,2.16,9.9Z"/><path class="cls-4" d="M53.32,18.61C45.71,3.46,29.18,5.73,29.18,5.73S12.66,3.46,5.05,18.61C-1.38,31.4.37,39.6,8.3,43.42a52.88,52.88,0,0,1,8.2,4.74A21.17,21.17,0,0,0,29.18,52a21.12,21.12,0,0,0,12.68-3.85,53.44,53.44,0,0,1,8.21-4.74C58,39.6,59.75,31.4,53.32,18.61Z"/><path class="cls-5" d="M29,5.7c-1.52-.15-11.09-.81-18.56,5.86,6.81,1,13,6,13.56,14.29.17,2.43-.35,6.58,1,8.7.6,1,2.32,1.06,4,1s3.4-.07,4-1c1.35-2.12.83-6.27,1-8.7.58-8.32,6.75-13.28,13.56-14.29C40.06,4.89,30.49,5.55,29,5.7Z"/><path d="M56.19,25.69a40,40,0,0,0-1.88-5,81.59,81.59,0,0,1-9.08,5.06C42.26,27.05,50.1,26.36,56.19,25.69Z"/><path d="M57.11,34l-9.58-1.83,4.71,9.93A11.28,11.28,0,0,0,57.11,34Z"/><path d="M12.25,25.77a78.3,78.3,0,0,1-8.39-4.63,40,40,0,0,0-1.71,4.64C8.09,26.42,15.08,27,12.25,25.77Z"/><path d="M1.24,33.87a11.26,11.26,0,0,0,4.23,7.79L10,32.21Z"/><path d="M34.3,14l2.82-7.83a27.32,27.32,0,0,0-3.46-.49Z"/><path d="M24.54,5.71a26.5,26.5,0,0,0-3.21.47l3.21,6.7Z"/><path d="M29.18,5.73a20,20,0,0,0-2.81-.12L29.64,14,32,5.61A21.82,21.82,0,0,0,29.18,5.73Z"/><path d="M41.61,23.62a1.94,1.94,0,1,1-1.93-2.14A2,2,0,0,1,41.61,23.62Z"/><path d="M20.62,23.62a2.05,2.05,0,0,1-1.93,2.15,2.16,2.16,0,0,1,0-4.29A2,2,0,0,1,20.62,23.62Z"/><path class="cls-6" d="M40.59,37.38c0,4.65-5.11,8.43-11.41,8.43S17.78,42,17.78,37.38s5.1-8.44,11.4-8.44S40.59,32.72,40.59,37.38Z"/><path class="cls-7" d="M29.64,40.26c0,3.46-3.75,6.26-8.37,6.26s-8.37-2.8-8.37-6.26S16.65,34,21.27,34,29.64,36.8,29.64,40.26Z"/><path class="cls-7" d="M45.92,40.26c0,3.46-3.75,6.26-8.37,6.26s-8.37-2.8-8.37-6.26S32.93,34,37.55,34,45.92,36.8,45.92,40.26Z"/><path class="cls-7" d="M29.18,42.94s-6.65-1.27-6,4.06c.43,3.74,4,4.61,6,4.61s5.62-.87,6-4.61C35.84,41.67,29.18,42.94,29.18,42.94Z"/><path class="cls-8" d="M26,45.49a8.8,8.8,0,0,1-3.67-1l.44-.73s2.86,1.54,4.57.6c.91-.5,1.37-1.65,1.37-3.42h.89c0,2.09-.62,3.49-1.82,4.15A3.81,3.81,0,0,1,26,45.49Z"/><path class="cls-8" d="M32.34,45.49a3.81,3.81,0,0,1-1.78-.41c-1.21-.66-1.82-2.06-1.82-4.15h.89c0,1.77.46,2.92,1.37,3.42,1.71.94,4.54-.58,4.57-.6l.44.73A8.85,8.85,0,0,1,32.34,45.49Z"/><path d="M35.84,37.46c0,2.24-4,4.16-5.79,4.91a2.26,2.26,0,0,1-1.73,0c-1.8-.75-5.79-2.67-5.79-4.91,0-2.9,3-5.25,6.65-5.25S35.84,34.56,35.84,37.46Z"/><path class="cls-9" d="M52.89,17.81a22.44,22.44,0,0,0,4.28-5.88C62.21,2.87,50-.14,45.8,0c-3.15.1-5.13,4-6.18,6.84a25.78,25.78,0,0,0-2.5-.66h0c-.62-.13-1.23-.23-1.81-.31h0l-.83-.11h0l-.78-.07h0c-1-.08-1.86-.1-2.56-.09s-1.43,0-1.83.07V52a21.11,21.11,0,0,0,12.59-3.85,53.44,53.44,0,0,1,8.21-4.74c7.93-3.82,9.68-12,3.25-24.81Z"/></g></g></g></svg>