<svg xmlns="http://www.w3.org/2000/svg" viewBox="0 0 735.78 613.9"><defs><style>.cls-1{fill:#184b89;fill-rule:evenodd;}</style></defs><title>Asset 1</title><g id="Layer_2" data-name="Layer 2"><g id="Layer_1-2" data-name="Layer 1"><path class="cls-1" d="M88.55,470.72a109.7,109.7,0,0,1-12,18.75l20.59,102c7.29,0,1.48,11.44,4.8,21.82H145.7c-1.21-7.28-10.16-18.88-17.32-22.79l-12.12-87.84c37.32-29.48,78-66.16,101.62-106.73-19.7-4.15-35.33-6.83-43.78-5.67l-.76.82a834.88,834.88,0,0,1-84.79,79.61m3.74-275.25c-32.15,11.9-71.21,37.44-84.83,86,0,0,12-20,45.31-31.17C60,226.28,74.16,207.23,92.29,195.47ZM4.89,613.9c-3.66-10,2.77-21.47-4.89-21.78L10.31,471.9C61.59,410.34,56.54,369.22,57.49,284c2.47-59.42,43.22-100,91.22-98.64.8,0,1.59,0,2.38.08l284,8.16,27.08.78c11.37-.19,23.91-1.88,37.1-4.45,2.37-.57,4.42-1,6-1.22l-.17,0c32.15-6.77,67.6-18.08,99-25.19a41.42,41.42,0,0,1,4.17-.73c-20.86-27.23-3-70.75-3-70.75L637,134.51c-13.25-47-49.8-92.25-100.88-102.76C459.77,16,382.55,78.25,398.15,160.13c2,10.94-4.57,7.05-6.95-1C361.55,58.58,460.27-12.56,551,1.86c56.22,8.93,99.39,45.92,122.72,99.72,17.42,40.16,32.54,85.37,48.36,126.63,11.34,33.19,20.16,59.39,7.42,70.15-7.81,5.79-27,6.12-27,6.12-15.62,26.95,17.48,41,17.48,41-37.49,6.35-54.52-22.1-47.65-46.62-15.08-23.55-34.93-29.51-50.68-38.06C583.85,292.62,525,348.78,470.38,382.72c3.16-22.4,1.39-43.85-1.91-64-.1,23.11-2.41,47.52-11.68,71.94-11.4,30-23.59,50-36.63,61.38L394.91,590.76h.24c7.09,4.1,15.75,15.42,16.93,22.56H371.79c-3.66-10,2.46-21.12-4.8-21.82l3.64-168.7c14.25-26.39,18.47-53.75,19.63-80.29h0c-5,21.61-12.29,43.39-25.54,63.57-63.08.55-144.18-25.07-180.94-29a183.48,183.48,0,0,0,22.69-56.41,184.16,184.16,0,0,1-36.17,57c-36.83,39.58-73,71.89-119.84,107.05L32.9,591.11c.5.06,11.54,9.38,15.74,22.79H4.89ZM537,452.47l-46.52,83.61c1.29,5.89-.12,20.12-4.1,27-9.13-9.2-17.36-17.65-26.48-26.85,7.3-8.91,15.87-19.35,10.7-22L497.67,453l-39-35.15q3.63-8.06,7.18-17.36a408,408,0,0,0,39-25.1Z"/></g></g></svg>