<svg xmlns="http://www.w3.org/2000/svg" viewBox="0 0 1032.44 626.31"><defs><style>.cls-1{fill:#d15a09;}</style></defs><title>Asset 2</title><g id="Layer_2" data-name="Layer 2"><g id="Layer_1-2" data-name="Layer 1"><g id="_Group_" data-name="&lt;Group&gt;"><g id="_Group_2" data-name="&lt;Group&gt;"><path id="_Path_" data-name="&lt;Path&gt;" class="cls-1" d="M601.8,447.6a189.09,189.09,0,0,0,21.46-16.94c12.58-11.45,23.88-24.29,35.23-37.06-.06-.07-.14-.13-.21-.2l-94,22.21S578.19,430.78,601.8,447.6Z"/><path id="_Path_2" data-name="&lt;Path&gt;" class="cls-1" d="M656.57,481.63c15.44-2.3,30.64-5.38,44.37-13.82,9.27-5.7,16.23-12.91,22.42-20.63l-8.7-14.49a288.79,288.79,0,0,1-36.24-22.35c-12.92,19.21-28.57,39.48-46.56,55.9a242.31,242.31,0,0,0,23,10.87Z"/><path id="_Path_3" data-name="&lt;Path&gt;" class="cls-1" d="M668.78,561.55A112.34,112.34,0,0,0,680,572.34c11.09-25.29,26.85-57,44.47-79.73-23.88,15.31-48.37,17-74.51,18.67l-8.87,18.15C650.55,539.89,659.14,551,668.78,561.55Z"/><path id="_Path_4" data-name="&lt;Path&gt;" class="cls-1" d="M662.59,597.75c-13.68-11.48-24.46-26.1-34.94-40.83l-5.24,10.73-25.62-6.77a35.58,35.58,0,0,0-38.37,17.76c-5.72,10.44-12.3,23.12-17.55,35.14H663.41s1.59-4.53,4.45-12C666,600.49,664.24,599.14,662.59,597.75Z"/><path id="_Path_5" data-name="&lt;Path&gt;" class="cls-1" d="M400.33,460l-39.87,88.83c12,2.33,19.4,12.7,23.94,25.37-3.94,14.52-12.9,41.89-25.93,48.09H391.4C424.24,568.51,414.84,499.32,400.33,460Z"/><path id="_Path_6" data-name="&lt;Path&gt;" class="cls-1" d="M333.19,526.31A236.1,236.1,0,0,1,311,500.39c-.87,50.06-21.12,88.33-21.12,88.33l-52.39-10.25c-27.34,14.81-26.19,47.84-26.19,47.84H324l31.39-79.24C347.17,540,339.66,532.77,333.19,526.31Z"/><path id="_Path_7" data-name="&lt;Path&gt;" class="cls-1" d="M843.51,392.22c-46-17.4-67.12-37.29-65.88-95.7,0,0,2.48,29.83,39.78,52.2,15.88,9.53,34.45,17.26,51.51,26.45a271.84,271.84,0,0,1-.5-51.81,336.85,336.85,0,0,0-31.7-70.48c10.17-1,19.84-2.26,29.13-3.78q-8-21.63-15.8-43.34a9.87,9.87,0,0,1-.07-7c-25.24-4.05-51.37-11.71-77.54-19.37a206,206,0,0,0-27.86-18.65c-8.82,11.84-19.69,24.21-31.58,32.63-29.83,21.13-47.23,41-57.18,65.88,0,0,2.49-41,32.32-73.34,16.66-18,26.34-23.69,32.72-35.76-24.39-8.65-56.82-13.64-98.45-6.15-1.73.31-3.5.59-5.26.87-17.5,11.07-41.67,35.05-47.09,84.55C561.37,309,527.8,353.69,445.77,366.12c0,0,65.87-23.61,88.25-88.25,17.64-51,6.71-88,37.28-128.26-18.62,1-37.58,1-55.82.37-7.42,13.79-13.77,33.18-12.54,58.36,2.76,56.54-31.62,97.9-83.47,103.65,0,0,48.22-18.64,57.16-67.69,5.41-29.66,1.92-65.74,5.64-96.32-8.5-.72-16.63-1.56-24.29-2.5-3.51,66.5-35.83,92.62-35.83,92.62,15.76-42.77,14.29-76.37,10.66-96.37-20.09-3.61-33.57-7.79-35.9-11.42a29.21,29.21,0,0,0-5.17-6c-9,10.3-16.41,24.75-18.48,45-6.21,60.91-77.05,85.76-77.05,85.76S336,224,348.41,181.76c6.85-23.29,8.43-46.93,18-66.4H316c-18.95,22.62-18.59,49.3-12.35,74.26,7.46,29.84-21.54,48.9-21.54,48.9s13.25-12.44-4.15-58.84a79.5,79.5,0,0,1,1.09-59.93c-6.74,1.49-14.12,3.18-21.65,4.94C236.28,151.86,246,182,263.06,216.14c20.71,41.43-6.63,71.26-6.63,71.26s5-48.88-25.69-95.29c-15.11-22.87-16.33-43.1-13.68-57.76-12.82,3.13-21.74,5.36-21.74,5.36l-17.08,15.37c14.52-17.93,3.41-40.14,3.41-40.14C150.9,136.29,45.83,177.29,45.83,177.29l-4.27,20.22C31.31,208.33,0,216.3,0,216.3c14.8,29,38.15,37,38.15,37l6.26-16.52c31.32-2.85,33,37,33,37l-25.63-6.27c15.38,15.95,19.36,43.28,19.36,43.28L115,276.66l40.44,2.28c38.15-32.46,6.26-78,6.26-78,37.58,34.74,12,80.3,12,80.3a140,140,0,0,1,33,17.62c5.37-9.19,9.1-22.8,5-42.1-9.11-43.08-25.69-60.49-9.94-89.49,0,0-7.46,30.66,19.06,67.95,22.3,31.35,25.2,58.62,15.23,88.67a227.21,227.21,0,0,1,19.65,22.27l21.65-51.25-17.09,67.19L274.7,389c10-15.69,24.23-43.16,28.13-77.52C309,256.74,383.62,261.71,406,187.14c0,0,1.25,58.42-33.55,79.55s-51,55.93-46,90.73c3.11,21.76-12.23,56.09-24.18,78.81,16.28,19.15,29.14,42.76,46.66,60.42q9.27,9.36,19.39,17.82l25.17-63.56L379.83,386c10.25-3.42,30.74-37.59,30.74-37.59-4.56,14.81-20.49,38.73-20.49,38.73l11.38,54.66,33.16-7.5c5.24-8.88,18.91-27.95,43.88-36.69,33.14-11.6,61.32-58,61.32-58s-9.12,48.05-35.63,59.66c-11.14,4.87-19.64,15-25.76,25.12l26.54-6c27.22-16.73,62.74-47.29,72.06-96.33,17.36-91.35,37.23-121.64,71.77-145.13,0,0-45.18,71.57-39.08,136.5,3,31.48-12.53,63.36-29.26,87.88l72.7-16.45C649.74,356.39,660,304,660,304s3.42,68.34,5.7,71.76a118.37,118.37,0,0,0,35.69,34.74c-8.21-22.31-14.11-48.66-10.76-74.2,8.29-63,54.7-76.23,61.32-119.32,0,0,6.64,34.8-6.62,61.32-11.46,22.89-51.22,65.58,7.41,151.46a116,116,0,0,0,18.88,1.8l22.1,15.8c4.56-1.26,8.93-2.58,12.91-4.06,23.69-8.85,45-20.68,62.91-37A105.64,105.64,0,0,0,843.51,392.22Z"/><path id="_Path_8" data-name="&lt;Path&gt;" class="cls-1" d="M879.88,519.71c3.53.67,7.55,1.31,12.38,2,20.48,2.82,37.22,2.88,55.94-.24,3.16-13.33,5.12-22.89,4.49-23.83-2.27-3.41-33-1.14-62.64-51.25-2-3.35-3.74-6.84-5.4-10.37-14.74,14.37-32.37,25.87-52.23,35-1.16.54-2.37,1-3.53,1.51l49.42,35.33Z"/><path id="_Path_9" data-name="&lt;Path&gt;" class="cls-1" d="M923.43,560.3a163.24,163.24,0,0,1-38.54-2.59l2.89,21.9s-34.17-9.11-41-6.83c-44.32,14.77-43.28,45.56-43.28,45.56H923.09s8-29.54,15.73-59.4C933.7,559.55,928.56,560,923.43,560.3Z"/><path id="_Path_10" data-name="&lt;Path&gt;" class="cls-1" d="M907.28,199.86a156.79,156.79,0,0,1-36.87,1.31q8.73,21.87,17.68,43.64,14.31-3.23,27-7.38A320.72,320.72,0,0,0,907.28,199.86Z"/><path id="_Path_11" data-name="&lt;Path&gt;" class="cls-1" d="M982.58,6.46c-19.36-8.31-40.88-8.61-57.79-.86a67,67,0,0,0-15.92,10.31c-10.61,9.18.06,26,13.06,20.69a63.21,63.21,0,0,1,38.68-2.78A112.52,112.52,0,0,1,982.58,6.46Z"/><path id="_Path_12" data-name="&lt;Path&gt;" class="cls-1" d="M985.22,45.85a57.25,57.25,0,0,1,21.45,41.43,123.3,123.3,0,0,1,25.71,4.47c0-.25,0-.48,0-.73.58-29.16-9.16-51.27-23.67-66.42A100.92,100.92,0,0,0,985.22,45.85Z"/><path id="_Path_13" data-name="&lt;Path&gt;" class="cls-1" d="M1001.92,118.14a123.19,123.19,0,0,1-15.73,29.59,219.87,219.87,0,0,1,14.95,34.72,137,137,0,0,0,27.09-56.71A103.62,103.62,0,0,0,1001.92,118.14Z"/><path id="_Path_14" data-name="&lt;Path&gt;" class="cls-1" d="M976.42,203.63a254.68,254.68,0,0,0-9-33.9,112,112,0,0,1-35.25,23.13,280.54,280.54,0,0,1,10.21,33.92A182.41,182.41,0,0,0,976.84,206C976.7,205.21,976.57,204.42,976.42,203.63Z"/></g></g></g></g></svg>