<svg xmlns="http://www.w3.org/2000/svg" viewBox="0 0 83.42 72.91"><defs><style>.cls-1{isolation:isolate;}.cls-2{fill:#909093;}.cls-3{fill:#fcd6dc;}.cls-4{fill:#a1b8c9;}.cls-5{fill:#755e61;}.cls-6{fill:#bdcfdb;}.cls-7{fill:#b7b7b7;opacity:0.65;mix-blend-mode:multiply;}</style></defs><title>Asset 4</title><g class="cls-1"><g id="Layer_2" data-name="Layer 2"><g id="Layer_1-2" data-name="Layer 1"><path class="cls-2" d="M41.71,61.71s-6.4-.48-2.87,5.45c0,0,.88-1,1.31,1.31s-.69,2.29,1.56,4.44c2.24-2.15,1.12-2.07,1.55-4.44s1.31-1.31,1.31-1.31C48.11,61.23,41.71,61.71,41.71,61.71Z"/><path class="cls-3" d="M54.91,23.55s16,5,27.3-2.57c0,0,4.06,1.75-2.67,8.82C74,35.63,68.59,32,54.91,41.65,54.91,41.65,59.52,29.8,54.91,23.55Z"/><path class="cls-4" d="M55.48,40c2.08-3.73,4.5-7.35,8.25-9.08,6.53-3,12.8-5.66,18.89-9.63a2.71,2.71,0,0,0-.41-.27c-11.32,7.61-27.3,2.57-27.3,2.57C58.45,28.36,56.55,36.46,55.48,40Z"/><path class="cls-3" d="M28.51,23.55s-16,5-27.3-2.57c0,0-4,1.75,2.68,8.82C9.43,35.63,14.83,32,28.51,41.65,28.51,41.65,23.91,29.8,28.51,23.55Z"/><path class="cls-4" d="M27.94,40c-2.08-3.73-4.5-7.35-8.24-9.08-6.54-3-12.81-5.66-18.89-9.63a2.41,2.41,0,0,1,.4-.27c11.32,7.61,27.3,2.57,27.3,2.57C25,28.36,26.87,36.46,27.94,40Z"/><path class="cls-5" d="M25.37,25.7s-9-13.38,3.82-25.42c0,0,3-.95,0,7.22s.1,13.13,4.68,13.8C33.87,21.3,30.53,25.51,25.37,25.7Z"/><path class="cls-5" d="M57.63,25.7s9-13.38-3.82-25.42c0,0-3-.95,0,7.22s-.1,13.13-4.68,13.8C49.13,21.3,52.47,25.51,57.63,25.7Z"/><path class="cls-6" d="M56.71,22.21c-.86.22-3.19-.38-5.76-1.21a30,30,0,0,0-18.49,0c-2.57.83-4.89,1.43-5.75,1.21-2.18-.54-7.71,16,3.18,24.62,1.84,1.45,4,2.2,4.94,4.35.65,1.55,1.6,3.11,1.6,5.22,0,5.54,4,7.61,5.28,7.61S47,61.94,47,56.4c0-2.11.82-3.29,1.47-4.84.89-2.16,3.94-2.12,5.77-3.56C65.12,39.37,58.88,21.67,56.71,22.21Z"/><path d="M45.34,55.69c0,1.9-1.63,4.11-3.63,4.11s-3.63-2.21-3.63-4.11a3.64,3.64,0,0,1,7.26,0Z"/><path d="M53.6,36.59a2.1,2.1,0,1,1-2.1-2.1A2.1,2.1,0,0,1,53.6,36.59Z"/><path d="M34,36.59a2.11,2.11,0,1,1-2.11-2.1A2.1,2.1,0,0,1,34,36.59Z"/><path class="cls-4" d="M35.44,20,31.91,21c1.74,2.2,5.6,7.59,7.92,10.86a2.3,2.3,0,0,0,3.75,0C45.9,28.57,49.76,23.18,51.5,21L48,20A24,24,0,0,0,35.44,20Z"/><path class="cls-7" d="M82.09,20.73c-8,5.39-18.37,4.43-23.73,3.42,0,0,0-.09,0-.13C60.19,20.26,64,9.72,53.69,0c0,0-3-.95,0,7.22,2.61,7.09.61,11.76-3,13.31l-2.88-.78A23.81,23.81,0,0,0,41.37,19v53.5c.07.07.13.14.21.21,2.25-2.15,1.12-2.07,1.55-4.44s1.32-1.31,1.32-1.31c1.63-2.74,1.14-4.11.14-4.79a8.13,8.13,0,0,0,2.27-6c0-2.11.83-3.29,1.47-4.84.9-2.16,3.94-2.12,5.77-3.56a17,17,0,0,0,4.38-5.48c1.12-2.47.5-3.77,1.85-4.52,7.9-4.38,14.49-3.36,19.08-8.2C86.14,22.48,82.09,20.73,82.09,20.73Z"/></g></g></g></svg>